<?xml version="1.0" standalone="no"?>
<!DOCTYPE svg PUBLIC "-//W3C//DTD SVG 20010904//EN"
 "http://www.w3.org/TR/2001/REC-SVG-20010904/DTD/svg10.dtd">
<svg version="1.0" xmlns="http://www.w3.org/2000/svg"
 width="1280.000000pt" height="1014.000000pt" viewBox="0 0 1280.000000 1014.000000"
 preserveAspectRatio="xMidYMid meet">
<metadata>
Created by potrace 1.15, written by Peter Selinger 2001-2017
</metadata>
<g transform="translate(0.000000,1014.000000) scale(0.100000,-0.100000)"
fill="#000000" stroke="none">
<path d="M2705 10134 c-463 -33 -797 -90 -1105 -185 -896 -280 -1428 -795
-1495 -1449 -4 -36 -18 -99 -31 -140 -103 -320 -94 -689 27 -1041 94 -274 280
-582 503 -831 763 -853 2012 -1424 3416 -1560 181 -17 824 -17 985 0 365 40
636 96 978 202 23 7 30 5 42 -13 8 -12 57 -60 110 -106 63 -55 92 -87 87 -95
-9 -12 -81 -193 -104 -261 -8 -25 -13 -86 -13 -160 1 -136 20 -215 82 -340 76
-150 107 -181 952 -948 443 -403 1177 -1069 1631 -1481 454 -413 913 -830
1020 -927 234 -212 248 -224 372 -306 208 -137 477 -240 768 -295 134 -25 448
-35 575 -19 404 52 579 191 745 589 75 178 95 250 113 392 17 129 11 203 -23
293 -32 86 -109 193 -201 283 -67 64 -3439 3030 -3674 3230 -281 240 -767 414
-1156 414 -99 0 -82 -10 -267 154 l-112 99 113 111 c177 174 283 321 376 517
78 166 117 299 141 479 6 47 24 128 40 180 46 153 54 205 54 380 1 210 -24
347 -100 544 -178 461 -594 928 -1169 1313 -771 515 -1768 853 -2830 958 -149
15 -729 28 -850 19z m2639 -1039 c20 -8 36 -18 36 -20 0 -5 -70 22 -79 30 -8
9 6 5 43 -10z m294 -139 c277 -139 526 -295 751 -470 130 -100 349 -311 449
-431 200 -239 334 -505 377 -749 24 -141 21 -182 -20 -250 -98 -164 -267 -322
-460 -432 -73 -41 -41 -7 74 79 143 107 245 209 317 318 62 93 64 98 64 161 0
36 -7 102 -15 147 -97 507 -533 1024 -1225 1447 -52 32 -180 102 -285 156
-104 53 -187 98 -182 98 4 0 74 -33 155 -74z"/>
</g>
</svg>
